<?xml version="1.0" encoding="UTF-8" standalone="no"?>
<!-- Created with Inkscape (http://www.inkscape.org/) -->

<svg
   xmlns:dc="http://purl.org/dc/elements/1.1/"
   xmlns:cc="http://creativecommons.org/ns#"
   xmlns:rdf="http://www.w3.org/1999/02/22-rdf-syntax-ns#"
   xmlns:svg="http://www.w3.org/2000/svg"
   xmlns="http://www.w3.org/2000/svg"
   xmlns:sodipodi="http://sodipodi.sourceforge.net/DTD/sodipodi-0.dtd"
   xmlns:inkscape="http://www.inkscape.org/namespaces/inkscape"
   version="1.1"
   id="svg815"
   width="411.99701"
   height="303.96201"
   viewBox="0 0 411.997 303.96201"
   sodipodi:docname="Valor - Corazón encintado.svg"
   inkscape:version="0.92.4 (5da689c313, 2019-01-14)"
   inkscape:export-filename="C:\Users\laver\Downloads\Valor - Corazón encintado.png"
   inkscape:export-xdpi="959"
   inkscape:export-ydpi="959">
  <metadata
     id="metadata821">
    <rdf:RDF>
      <cc:Work
         rdf:about="">
        <dc:format>image/svg+xml</dc:format>
        <dc:type
           rdf:resource="http://purl.org/dc/dcmitype/StillImage" />
        <dc:title></dc:title>
      </cc:Work>
    </rdf:RDF>
  </metadata>
  <defs
     id="defs819" />
  <sodipodi:namedview
     pagecolor="#ffffff"
     bordercolor="#666666"
     borderopacity="1"
     objecttolerance="10"
     gridtolerance="10"
     guidetolerance="10"
     inkscape:pageopacity="0"
     inkscape:pageshadow="2"
     inkscape:window-width="1280"
     inkscape:window-height="897"
     id="namedview817"
     showgrid="false"
     inkscape:zoom="1.4142136"
     inkscape:cx="278.7852"
     inkscape:cy="72.55199"
     inkscape:window-x="-8"
     inkscape:window-y="-8"
     inkscape:window-maximized="1"
     inkscape:current-layer="g844"
     inkscape:snap-bbox="true"
     inkscape:snap-object-midpoints="false"
     inkscape:bbox-paths="true"
     inkscape:bbox-nodes="true"
     inkscape:snap-bbox-edge-midpoints="true"
     inkscape:snap-bbox-midpoints="true"
     inkscape:snap-intersection-paths="true"
     inkscape:object-paths="true"
     inkscape:snap-smooth-nodes="true"
     inkscape:snap-midpoints="true"
     inkscape:snap-global="false" />
  <g
     style="display:inline"
     inkscape:label="Encintado Final"
     id="g844"
     inkscape:groupmode="layer"
     transform="translate(0,-1296.038)">
    <path
       style="display:inline;fill:#f9a09c;fill-opacity:1;stroke:#000000;stroke-width:1px;stroke-linecap:butt;stroke-linejoin:miter;stroke-opacity:1"
       d="m 260.97587,1296.5449 c -6.5049,0.1982 -14.80071,1.237 -25.11328,2.8828 -10.31257,1.6458 -16.38004,4.1015 -27.45697,11.3752 -11.07693,7.2736 -21.62819,19.2146 -26.54303,18.0525 -4.91484,-1.1621 -21.84869,-17.7198 -33.10742,-22.3554 -11.25873,-4.6356 -27.63505,-9.7622 -40.89098,-9.6166 -13.255932,0.1457 -24.577292,-0.8391 -44.751602,7.5795 -20.17431,8.4185 -42.99248,42.3727 -44.39257,68.1074 -1.40009,25.7347 -7.10938,21.5551 19,58.9551 26.10937,37.3999 100.272812,126.9115 103.427732,130.5722 3.15492,3.6608 6.17547,8.1103 9.28711,5.3301 3.11164,-2.7802 38.01188,-57.2818 62.85546,-76.8574 24.84358,-19.5757 79.13259,-58.0216 88.28711,-72.8574 9.15452,-14.8358 17.19985,-18.9206 15.71289,-50.2852 -1.48696,-31.3646 -16.45452,-51.731 -26,-59.1426 -9.54548,-7.4116 -23.80955,-11.9384 -30.31445,-11.7402 z m -147.5293,18.164 c 17.62969,0.2542 59.52281,37.6929 72.125,34.3457 12.60219,-3.3471 22.99279,-20.1737 42.46094,-26.9199 19.46815,-6.7461 37.87557,-9.1431 48.57227,-4.8574 10.6967,4.2857 26.41042,17.8902 29.04771,30.3136 2.63729,12.4233 1.52372,28.8287 -9.04771,43.9716 -10.57143,15.1428 -26.92801,35.7873 -44.28516,49.1445 -17.35715,13.3572 -60.98354,45.2497 -68.28711,51.1426 -7.30357,5.8928 -26.45237,23.3667 -31.14258,31.4277 -4.69021,8.0611 -7.82617,20.6367 -7.82617,20.6367 0,0 -88.581802,-106.7536 -104.458982,-129.207 -15.87718,-22.4534 -10.03544,-36.7868 -7.14258,-47.4297 2.89286,-10.6429 17.78871,-35.9322 35.89258,-43.0703 18.10387,-7.1381 26.4621,-9.7522 44.091792,-9.4981 z"
       id="path836"
       inkscape:connector-curvature="0"
       sodipodi:nodetypes="zzzzzzzzzzzzzzzzzzzzzzzzzczzzz" />
    <path
       sodipodi:nodetypes="zzzzzzzzczczzzzzzzzzzzzzzzzczczczzzzzzzz"
       inkscape:connector-curvature="0"
       id="path838"
       d="m 22.785708,1367.4401 c -3.82339,-0.45 -6.99141,5.5854 -8.94077,10.7208 -1.94936,5.1353 -1.90204,8.3171 -1.61532,11.3006 0.28671,2.9834 1.5658,10.7076 15.10178,12.7279 13.53598,2.0203 87.340852,-13.5158 102.816902,-17.1903 15.47605,-3.6744 53.32255,-12.6704 85.57143,-19.1428 32.24888,-6.4725 101.38417,-17.2523 131,-13.4286 29.61583,3.8237 46.51524,7.5242 42.80186,8.1434 -3.71338,0.6192 -32.12285,4.6467 -32.12285,4.6467 0,0 14.52249,9.2299 20.23211,13.6225 5.70962,4.3927 16.43643,15.7729 16.43643,15.7729 0,0 -34.11027,-10.2421 -42.71931,-11.8851 -8.60904,-1.643 -32.13943,-7.4837 -49.79261,-10.2352 -17.65319,-2.7514 -27.51738,-2.147 -35.83563,-1.2081 -8.31825,0.9389 -27.13356,2.8529 -54.28571,8.5715 -27.15215,5.7185 -85.55684,20.9221 -111.28572,25.7143 -25.728882,4.7922 -30.714282,8.4285 -50.142852,7.2857 -19.42857,-1.1429 -43.0126698,-6.1883 -45.4285698,-19.4286 -2.4159,-13.2403 15.0106098,-21.7287 10.4285698,-24.5714 -4.58204,-2.8428 -13.8922598,13.5134 -14.42856978,20.8571 -0.53632,7.3437 1.73024998,10.4398 6.20917998,15.1025 4.4789298,4.6628 9.8870598,7.2254 17.5051098,8.8975 7.61804,1.6722 21.57464,3.334 29.85713,3.5714 8.28249,0.2375 29.28572,-1.7142 43.42858,-5.8571 14.142862,-4.1429 167.667612,-35.758 178.269812,-36.2094 10.6022,-0.4514 25.97444,2.6424 35.19962,3.8294 9.22518,1.187 39.96388,7.9226 51.80725,11.1209 11.84337,3.1983 38.72332,11.6877 38.72332,11.6877 0,0 -10.19285,-17.7796 -17.28572,-23.4286 -7.09287,-5.649 -17.28571,-11.1429 -17.28571,-11.1429 0,0 20.19467,-1.6353 24.57143,-2 4.37676,-0.3646 18.57143,-1.7142 18.57143,-1.7142 0,0 -13.07291,-6.2254 -25.90147,-9.9035 -12.82856,-3.6781 -31.85056,-6.4718 -49.298,-8.0881 -17.44744,-1.6162 -74.9288,4.1835 -88.66688,7.618 -13.73808,3.4345 -73.90277,17.794 -94.34825,22.0213 -20.44548,4.2273 -44.81634,8.9792 -67.550612,13.8007 -22.73426,4.8214 -45.63343,7.6505 -48.61693,8.0186 -2.9835,0.3682 -18.15586,2.128 -19.63985,-7.9562 -1.48399,-10.0842 10.48278,-21.1913 6.65939,-21.6413 z"
       style="display:inline;fill:#1588b0;fill-opacity:1;stroke:#000000;stroke-width:1px;stroke-linecap:butt;stroke-linejoin:miter;stroke-opacity:1" />
    <path
       style="display:inline;fill:#1588b0;fill-opacity:1;stroke:#000000;stroke-width:1px;stroke-linecap:butt;stroke-linejoin:miter;stroke-opacity:1"
       d="m 283.83499,1456.5893 c -0.23171,7.1542 -5.84146,15.8279 -10.22145,19.77 -4.37999,3.9421 -15.32182,7.9247 -22.03611,9.4961 -6.71429,1.5715 -34.85685,7.8575 -44.14257,8.8575 -9.28572,1 -29.60809,4.3573 -44.71485,6.1425 -15.10676,1.7852 -27.94519,6.0283 -44.56836,14.0059 -16.62318,7.9776 -31.821302,18.0927 -37.289062,24.4238 -10.85714,12.5715 -38.42773,54.5703 -38.42773,54.5703 0,0 -1.28711,-14.1417 2.71289,-24.5703 4,-10.4285 9.14341,-19.7143 5.71484,-23 -3.42857,-3.2857 -23.85742,11.1426 -23.85742,11.1426 0,0 12.14258,-14.7146 22.14258,-24.8574 10,-10.1429 34.28711,-24.2849 55.287112,-30.4278 21,-6.1428 67.57003,-10.7154 84.71289,-12.4296 17.14286,-1.7143 49.21531,-4.4272 65.71484,-7.8575 8.05663,-1.675 15.4013,-5.6305 18.24648,-8.2598 2.84517,-2.6292 6.4596,-6.163 7.31602,-14.037 0.85642,-7.874 -1.50785,-12.8027 -4.27734,-12.1309 -2.76949,0.6718 4.59892,12.2897 -3.40039,21.9375 -7.99931,9.6478 -70.71028,16.1615 -84.65039,16.7676 -13.94012,0.6061 -78.37779,5.0092 -105.949222,19.2949 -27.57143,14.2857 -48.71428,36.4291 -55,43.7148 -6.28571,7.2858 -6.42773,20.4278 -6.42773,20.4278 0,0 7.21317,-5.6434 11.57031,-10.2149 4.35714,-4.5714 13.2133,-9.2521 14.99218,-8.2695 1.77888,0.9826 -5.45564,14.8493 -8.08203,25.2539 -2.6264,10.4046 2.32422,22.7285 2.32422,22.7285 0,0 10.07464,-11.2224 15.42578,-19.9746 5.35114,-8.7522 9.9675,-14.915 12.91211,-19.666 2.94461,-4.751 10.73617,-14.2895 20.94531,-22.7402 10.209142,-8.4508 16.133802,-12.0739 30.482422,-18.4024 14.34862,-6.3285 56.28656,-16.1434 87.57227,-19.7148 31.28571,-3.5715 61.00027,-12.8563 67.85742,-19.4278 6.85715,-6.5714 10.87689,-15.8902 11.5,-19.4296 0.62311,-3.5395 0.0748,-22.2937 -2.51571,-22.2532 -2.5905,0.041 -1.63759,11.9753 -1.86931,19.1296 z"
       id="path840-1"
       inkscape:connector-curvature="0"
       sodipodi:nodetypes="zzssssscsscsssszzzzssscssscssssszzzz" />
  </g>
</svg>
